<?xml version="1.0" standalone="no"?>
<!DOCTYPE svg PUBLIC "-//W3C//DTD SVG 20010904//EN"
 "http://www.w3.org/TR/2001/REC-SVG-20010904/DTD/svg10.dtd">
<svg version="1.0" xmlns="http://www.w3.org/2000/svg"
 width="200px" viewBox="0 0 200 200"
 preserveAspectRatio="xMidYMid meet">

<g transform="translate(0.000000,200.000000) scale(0.100000,-0.100000)"
fill="#000000" stroke="none">
<path d="M417 1582 c-42 -42 -77 -82 -77 -87 0 -5 109 -119 242 -252 l243
-243 -243 -243 c-133 -133 -242 -247 -242 -252 0 -13 152 -165 165 -165 5 0
119 109 252 242 l243 243 243 -243 c133 -133 247 -242 252 -242 13 0 165 152
165 165 0 5 -109 119 -242 252 l-243 243 243 243 c133 133 242 247 242 252 0
13 -152 165 -165 165 -5 0 -119 -109 -252 -242 l-243 -243 -243 243 c-133 133
-247 242 -252 242 -6 0 -45 -35 -88 -78z m583 -452 c8 0 123 108 255 240 l240
240 57 -57 58 -58 -240 -240 c-132 -132 -240 -247 -240 -255 0 -8 108 -123
240 -255 l240 -240 -58 -58 -57 -57 -240 240 c-132 132 -247 240 -255 240 -8
0 -123 -108 -255 -240 l-240 -240 -57 57 -58 58 240 240 c132 132 240 247 240
255 0 8 -108 123 -240 255 l-240 240 57 57 58 58 240 -240 c132 -132 247 -240
255 -240z"/>
<path d="M500 1491 c0 -13 29 -35 37 -28 7 8 -15 37 -28 37 -5 0 -9 -4 -9 -9z"/>
<path d="M1470 1485 c-7 -9 -10 -18 -7 -22 8 -7 37 15 37 28 0 14 -16 11 -30
-6z"/>
<path d="M560 1432 c0 -14 49 -56 57 -49 3 4 -4 18 -17 32 -24 25 -40 32 -40
17z"/>
<path d="M1213 1228 l-213 -213 -175 175 c-96 96 -178 171 -182 167 -4 -4 71
-86 167 -182 l175 -175 -215 -215 c-118 -118 -211 -218 -207 -222 4 -4 104 89
222 207 l215 215 175 -175 c96 -96 178 -171 182 -167 4 4 -71 86 -167 182
l-175 175 213 213 c116 117 212 216 212 220 0 4 -3 7 -8 7 -4 0 -103 -96 -219
-212z"/>
<path d="M1380 612 c0 -14 49 -56 57 -49 3 4 -4 18 -17 32 -24 25 -40 32 -40
17z"/>
<path d="M510 525 c-7 -9 -10 -18 -7 -22 8 -7 37 15 37 28 0 14 -16 11 -30 -6z"/>
<path d="M1460 531 c0 -13 29 -35 37 -28 7 8 -15 37 -28 37 -5 0 -9 -4 -9 -9z"/>
</g>
</svg>
