<?xml version="1.0" standalone="no"?>
<!DOCTYPE svg PUBLIC "-//W3C//DTD SVG 20010904//EN"
 "http://www.w3.org/TR/2001/REC-SVG-20010904/DTD/svg10.dtd">
<svg version="1.0" xmlns="http://www.w3.org/2000/svg"
 width="200px" viewBox="0 0 200 200"
 preserveAspectRatio="xMidYMid meet">

<g transform="translate(0.000000,200.000000) scale(0.100000,-0.100000)"
fill="#000000" stroke="none">
<path d="M500 1624 c-213 -78 -318 -355 -226 -598 77 -204 318 -444 633 -633
48 -29 91 -53 94 -53 12 0 180 106 271 170 51 36 143 114 205 174 184 177 270
327 280 491 15 241 -126 441 -326 461 -136 15 -308 -83 -414 -236 l-17 -24
-16 24 c-42 62 -162 168 -227 200 -83 41 -185 50 -257 24z m231 -56 c67 -31
132 -85 199 -165 28 -35 60 -63 69 -63 10 0 42 28 70 63 102 120 200 183 304
194 248 26 418 -280 313 -561 -71 -189 -285 -406 -582 -590 -50 -31 -97 -56
-104 -56 -7 0 -47 21 -89 47 -531 330 -732 669 -581 980 37 75 113 147 179
168 64 21 156 13 222 -17z"/>
<path d="M521 1527 c-151 -57 -223 -283 -151 -468 67 -170 281 -384 553 -553
l77 -48 78 48 c199 125 399 302 485 431 51 76 87 160 87 200 0 36 -14 19 -29
-37 -46 -163 -229 -360 -508 -546 l-113 -75 -114 76 c-264 176 -434 352 -497
513 -17 43 -23 78 -23 142 -1 103 20 170 71 230 69 80 156 99 251 55 73 -34
114 -68 173 -142 56 -69 91 -93 139 -93 48 0 82 23 143 98 81 101 182 162 266
162 68 -1 149 -55 189 -127 17 -30 25 -7 8 25 -39 75 -144 130 -227 119 -90
-12 -163 -65 -292 -212 -33 -37 -39 -40 -87 -40 -48 0 -54 3 -87 40 -138 157
-206 204 -301 211 -32 2 -72 -2 -91 -9z"/>
<path d="M1620 1348 c0 -24 11 -48 22 -48 5 0 6 10 3 23 -10 30 -25 46 -25 25z"/>
<path d="M1640 1231 c0 -28 5 -51 10 -51 6 0 10 20 10 44 0 25 -4 48 -10 51
-6 4 -10 -13 -10 -44z"/>
</g>
</svg>
